<svg width="240" height="241" viewBox="0 0 240 241" fill="none" xmlns="http://www.w3.org/2000/svg">
<path d="M239 120.5C239 186.502 185.718 240 120 240C54.282 240 1 186.502 1 120.5C1 54.498 54.282 1 120 1C185.718 1 239 54.498 239 120.5Z" fill="#004d87" stroke="white" stroke-width="2"/>
<path d="M148.5 80C148.5 95.1174 135.588 107.5 119.5 107.5C103.412 107.5 90.5 95.1174 90.5 80C90.5 64.8826 103.412 52.5 119.5 52.5C135.588 52.5 148.5 64.8826 148.5 80Z" fill="#004d87" stroke="#F5F5F5" stroke-width="3"/>
<path d="M55 189V165C55 148.431 68.4315 135 85 135H154C170.569 135 184 148.431 184 165V189" stroke="#F5F5F5" stroke-width="3"/>
</svg>
